<?xml version="1.0" standalone="no"?>
<!DOCTYPE svg PUBLIC "-//W3C//DTD SVG 20010904//EN"
 "http://www.w3.org/TR/2001/REC-SVG-20010904/DTD/svg10.dtd">
<svg version="1.0" xmlns="http://www.w3.org/2000/svg"
 width="350.000000pt" height="500.000000pt" viewBox="0 0 350.000000 500.000000"
 preserveAspectRatio="xMidYMid meet">
<g transform="translate(0.000000,500.000000) scale(0.100000,-0.100000)"
fill="#000000" stroke="none">
<path d="M1765 4885 c-9 -21 -28 -77 -41 -124 -14 -47 -27 -94 -30 -103 -3
-12 2 -17 18 -20 21 -3 23 -9 26 -68 1 -36 -2 -119 -7 -185 -22 -258 -26 -274
-77 -289 -14 -4 -26 0 -38 13 -16 17 -16 26 0 147 16 127 17 385 0 401 -12 12
-76 -89 -96 -154 -7 -21 -16 -42 -21 -47 -5 -6 1 -14 14 -20 32 -17 32 -47 -3
-221 -36 -176 -34 -219 10 -268 l28 -32 40 23 c86 48 132 14 132 -96 0 -57 3
-68 26 -88 14 -13 32 -24 40 -24 12 0 14 -42 16 -272 l2 -273 6 195 c6 222 12
197 14 -62 0 -97 4 -180 8 -184 4 -4 2 -14 -5 -22 -7 -9 -8 -17 -2 -19 6 -2 9
-37 9 -81 -2 -124 -2 -122 -24 -122 -23 0 -22 -11 -21 298 1 119 -3 172 -10
172 -8 0 -8 4 -1 13 10 12 11 111 1 122 -4 3 -3 25 2 48 4 23 7 43 6 43 -1 1
-12 5 -24 8 -22 7 -23 5 -23 -53 0 -48 3 -60 18 -64 16 -4 16 -5 0 -6 -21 -1
-26 -56 -5 -64 10 -4 10 -6 0 -6 -8 -1 -13 -15 -13 -36 0 -21 5 -35 13 -35 8
0 9 -3 1 -8 -7 -5 -9 -48 -6 -132 2 -69 5 -747 6 -1508 2 -1090 0 -1387 -10
-1400 -11 -15 -16 -14 -48 17 -20 19 -38 32 -41 29 -9 -8 17 -58 26 -52 5 3 6
-2 3 -11 -7 -17 66 -131 101 -157 22 -17 23 -16 68 29 43 43 107 152 107 182
0 7 -15 0 -36 -19 -20 -17 -42 -29 -48 -27 -7 3 -19 1 -27 -4 -12 -7 -12 -9 1
-9 13 0 13 -1 0 -10 -20 -13 -28 -12 -33 3 -2 6 -3 4 -2 -5 4 -25 -21 -43 -29
-22 -4 9 -9 14 -12 11 -4 -3 -12 0 -19 6 -11 10 -8 17 17 40 26 24 31 25 44
12 38 -37 39 -27 40 362 3 950 2 2624 -2 2773 -2 91 -3 195 -3 233 0 44 -4 67
-12 67 -7 0 -6 8 4 24 10 15 15 43 14 82 -2 70 17 115 53 124 30 8 81 -5 92
-22 11 -19 39 1 60 43 24 47 22 102 -8 235 -14 67 -24 136 -22 167 3 45 6 52
26 55 12 2 22 5 22 7 0 12 -55 151 -61 155 -4 3 -12 18 -18 33 -27 70 -50 0
-58 -172 -4 -75 -1 -163 7 -222 14 -112 9 -139 -25 -139 -38 0 -69 52 -61 102
4 26 3 44 -4 48 -8 5 -14 74 -17 198 l-6 190 24 4 c13 1 23 8 21 13 -25 94
-77 243 -88 254 -12 13 -16 9 -29 -24z m32 -35 c3 -8 5 -33 3 -54 -1 -32 1
-38 15 -33 11 5 14 3 8 -6 -10 -16 -10 -87 0 -87 4 0 7 15 8 33 0 30 1 30 10
9 5 -13 7 -28 3 -33 -3 -5 1 -9 8 -9 7 0 -1 -7 -18 -16 -42 -20 -44 -34 -44
-288 l0 -211 30 -52 c17 -29 35 -53 40 -53 16 0 12 15 -10 40 -11 13 -20 29
-20 36 0 7 -4 14 -8 16 -5 2 -12 16 -16 31 -4 16 -3 26 1 24 4 -3 7 30 7 73
-1 44 2 94 7 112 6 25 8 14 6 -44 -1 -43 1 -78 4 -78 13 0 19 -33 9 -46 -8 -9
-8 -24 1 -54 22 -73 92 -105 124 -56 15 22 15 35 2 133 -18 136 -9 393 14 393
5 0 9 -6 9 -13 0 -7 9 -29 20 -49 11 -21 17 -44 14 -53 -3 -8 -2 -15 4 -15 21
0 21 -32 0 -53 -11 -12 -18 -16 -14 -10 5 9 2 11 -8 7 -21 -8 -21 -77 0 -221
21 -138 13 -167 -48 -183 -22 -6 -53 -10 -70 -8 -28 3 -35 -2 -65 -52 -34 -54
-34 -57 -30 -147 2 -51 1 -93 -1 -93 -3 0 -16 10 -29 22 -18 17 -23 32 -23 73
0 29 -5 66 -11 83 -21 60 -86 79 -146 42 l-32 -19 -20 25 c-31 40 -34 89 -10
219 35 199 37 207 31 229 -3 12 -12 26 -20 32 -13 9 -10 22 21 88 21 42 37 81
37 86 0 5 5 12 11 15 7 5 9 -25 8 -94 -1 -56 -5 -97 -9 -91 -3 6 -17 -71 -29
-170 -22 -167 -22 -181 -7 -205 11 -16 22 -22 33 -18 14 5 13 8 -5 14 -18 7
-22 16 -21 46 1 22 3 29 6 18 7 -29 31 -52 59 -58 43 -8 97 51 98 108 1 11 6
19 11 18 6 -1 12 8 12 19 2 19 1 19 -18 3 -32 -30 -23 4 11 37 17 15 30 30 30
33 0 11 -29 4 -33 -7 -11 -32 6 232 17 267 16 50 4 93 -29 101 -17 4 -21 11
-17 26 4 15 7 17 14 6 6 -9 7 -6 3 10 -6 19 17 117 42 182 5 13 6 13 10 0 3
-8 7 -22 10 -30z m20 -397 c-3 -10 -5 -2 -5 17 0 19 2 27 5 18 2 -10 2 -26 0
-35z m-211 -110 c-4 -43 -13 -103 -21 -133 -16 -60 -16 -60 7 118 7 50 14 92
16 92 3 0 2 -35 -2 -77z m401 -15 c-3 -7 -5 -2 -5 12 0 14 2 19 5 13 2 -7 2
-19 0 -25z m27 -118 c1 -9 5 -20 8 -25 14 -23 19 -151 8 -180 -11 -28 -13 -29
-21 -10 -8 16 -8 15 -4 -7 7 -35 -8 -43 -42 -21 -32 21 -113 26 -106 6 3 -7 0
-13 -6 -13 -5 0 -19 -19 -29 -42 -14 -34 -17 -53 -10 -93 5 -36 4 -53 -5 -63
-11 -10 -13 6 -13 87 1 83 4 103 21 122 31 38 47 49 71 49 12 0 25 -6 27 -12
4 -10 8 -10 14 -2 12 17 53 28 53 14 0 -6 5 -8 11 -5 6 4 8 13 5 20 -3 8 0 15
5 17 16 5 18 92 3 150 -8 29 -14 66 -13 83 1 25 3 23 11 -15 5 -25 11 -52 12
-60z m-217 -502 c-3 -8 -6 -5 -6 6 -1 11 2 17 5 13 3 -3 4 -12 1 -19z m13
-109 c0 -5 -4 -9 -10 -9 -5 0 -10 7 -10 16 0 8 5 12 10 9 6 -3 10 -10 10 -16z
m-60 -369 c0 -5 -2 -10 -4 -10 -3 0 -8 5 -11 10 -3 6 -1 10 4 10 6 0 11 -4 11
-10z m-3 -137 c-3 -10 -5 -4 -5 12 0 17 2 24 5 18 2 -7 2 -21 0 -30z m0 -55
c-3 -8 -6 -5 -6 6 -1 11 2 17 5 13 3 -3 4 -12 1 -19z m0 -80 c-3 -8 -6 -5 -6
6 -1 11 2 17 5 13 3 -3 4 -12 1 -19z m83 -98 c0 -5 -9 -10 -20 -10 -19 0 -20
-7 -20 -101 0 -56 4 -98 9 -95 5 3 11 -8 13 -24 4 -28 -6 -43 -14 -20 -1 6 -2
-24 -1 -65 1 -41 4 -79 8 -84 3 -5 0 -13 -5 -16 -7 -5 -5 -12 7 -20 16 -12 16
-14 2 -20 -11 -4 -15 -15 -13 -33 2 -15 4 -76 5 -136 1 -67 4 -104 10 -95 7
11 9 10 9 -3 0 -10 -4 -18 -10 -18 -5 0 -9 -19 -9 -42 l2 -43 7 35 7 35 2 -37
c0 -20 -3 -40 -9 -43 -5 -3 -10 -20 -10 -36 0 -17 3 -28 8 -26 4 3 8 -16 9
-42 1 -33 0 -41 -7 -26 -6 14 -9 -2 -9 -52 -1 -39 3 -74 8 -77 5 -3 11 -14 13
-24 4 -15 -1 -19 -28 -19 -31 0 -34 3 -34 31 0 25 2 28 11 16 8 -11 9 -6 5 20
-3 19 -8 62 -11 95 -4 33 -9 69 -12 80 -3 11 -2 16 3 12 4 -4 11 -29 14 -55 3
-26 7 34 8 133 1 186 -3 229 -19 204 -5 -9 -9 13 -9 59 0 39 4 72 9 72 5 0 7
-25 5 -55 -2 -30 0 -55 5 -55 6 0 9 93 9 228 -1 163 -4 215 -10 184 -5 -24
-11 -42 -13 -40 -3 2 3 56 17 173 2 12 -2 19 -9 18 -7 -2 -13 4 -13 12 0 11
11 15 40 15 22 0 40 -4 40 -10z m-23 -112 c-2 -13 -4 -5 -4 17 -1 22 1 32 4
23 2 -10 2 -28 0 -40z m-37 -138 c0 -5 -4 -10 -10 -10 -5 0 -10 5 -10 10 0 6
5 10 10 10 6 0 10 -4 10 -10z m-13 -92 c-3 -8 -6 -5 -6 6 -1 11 2 17 5 13 3
-3 4 -12 1 -19z m13 -83 c0 -8 -2 -15 -4 -15 -2 0 -6 7 -10 15 -3 8 -1 15 4
15 6 0 10 -7 10 -15z m47 -147 c-3 -7 -5 -2 -5 12 0 14 2 19 5 13 2 -7 2 -19
0 -25z m-60 -150 c-2 -13 -4 -5 -4 17 -1 22 1 32 4 23 2 -10 2 -28 0 -40z m71
-467 c2 -21 0 -31 -7 -26 -6 3 -11 1 -11 -4 0 -6 5 -11 10 -11 6 0 10 -7 10
-16 0 -8 -4 -13 -8 -10 -4 2 -8 -4 -8 -14 0 -10 4 -16 8 -14 4 3 8 0 8 -5 0
-6 -5 -11 -12 -11 -9 0 -9 -3 0 -12 15 -15 16 -48 2 -48 -5 0 -10 -7 -10 -16
0 -8 5 -12 10 -9 6 3 10 4 10 0 0 -3 -10 -10 -22 -15 -16 -6 -18 -9 -7 -9 9
-1 19 -7 22 -15 5 -11 -2 -11 -35 2 -33 13 -37 17 -22 23 11 4 13 8 6 8 -7 1
-11 5 -8 10 4 5 0 12 -6 15 -10 5 -10 7 0 12 14 7 16 44 2 44 -5 0 -10 5 -10
11 0 5 5 7 10 4 14 -9 12 8 -2 24 -10 11 -10 13 0 7 7 -4 12 -1 12 8 0 9 -6
16 -12 16 -10 0 -9 3 1 9 7 5 11 13 7 19 -3 6 -2 22 4 37 7 20 16 26 33 23 17
-2 23 -11 25 -37z m-10 -271 c3 -9 -1 -11 -12 -7 -9 4 -16 2 -16 -3 0 -6 6
-10 13 -10 9 0 12 -38 13 -156 l0 -155 -30 3 -30 3 -1 83 c-1 74 0 82 16 77
10 -3 20 -1 24 5 4 7 0 10 -11 8 -12 -2 -19 3 -19 14 0 9 -4 20 -8 24 -11 11
-9 26 3 19 6 -3 10 -1 10 4 0 6 -6 12 -12 12 -7 1 1 5 17 9 20 5 23 8 10 9
-20 1 -54 41 -35 41 5 0 10 -4 10 -10 0 -5 5 -10 10 -10 12 0 1 53 -12 58 -4
2 -8 8 -8 13 0 13 63 -15 68 -31z m-2 -366 c-3 -9 -6 -48 -7 -87 -1 -52 -3
-65 -9 -47 -7 20 -8 17 -7 -17 1 -24 5 -43 9 -43 4 0 7 -32 7 -72 0 -47 -4
-67 -10 -57 -7 11 -9 9 -9 -8 0 -14 6 -23 15 -23 16 0 19 -9 8 -36 -6 -16 -7
-16 -14 2 -4 11 -7 -12 -7 -56 0 -55 2 -67 8 -45 l8 30 1 -32 c0 -17 -3 -35
-9 -38 -5 -3 -10 -36 -9 -73 0 -47 3 -61 9 -47 8 18 9 17 9 -7 1 -16 -4 -28
-10 -28 -6 0 -3 -7 6 -16 21 -21 17 -24 -25 -15 -21 4 -30 10 -23 14 8 5 12
61 12 195 0 114 -4 179 -9 167 -6 -14 -8 0 -8 45 1 36 3 50 5 33 2 -18 8 -33
12 -33 12 0 0 259 -14 293 -6 14 -1 17 30 17 30 0 36 -3 31 -16z m-59 -76 c-3
-8 -6 -5 -6 6 -1 11 2 17 5 13 3 -3 4 -12 1 -19z m0 -120 c-2 -18 -4 -6 -4 27
0 33 2 48 4 33 2 -15 2 -42 0 -60z m0 -210 c-3 -7 -5 -2 -5 12 0 14 2 19 5 13
2 -7 2 -19 0 -25z m0 -145 c-3 -10 -5 -4 -5 12 0 17 2 24 5 18 2 -7 2 -21 0
-30z m56 -48 c-3 -9 -8 -14 -10 -11 -3 3 -2 9 2 15 9 16 15 13 8 -4z m87 -175
c-6 -11 -15 -20 -20 -20 -6 0 -10 -8 -10 -17 0 -26 -86 -118 -95 -103 -4 7 -1
17 6 22 11 8 10 8 -4 4 -13 -4 -20 0 -24 14 -3 11 -10 17 -16 13 -6 -4 -8 0
-4 10 3 9 2 16 -3 14 -6 -1 -20 14 -32 32 -23 36 -5 35 20 -1 7 -10 19 -18 27
-18 7 0 15 -5 17 -11 5 -14 39 2 72 32 11 11 25 19 32 19 6 0 17 7 24 15 18
21 23 19 10 -5z"/>
<path d="M2000 4541 c0 -6 4 -13 10 -16 6 -3 7 1 4 9 -7 18 -14 21 -14 7z"/>
<path d="M2002 4490 c0 -14 2 -19 5 -12 2 6 2 18 0 25 -3 6 -5 1 -5 -13z"/>
<path d="M1760 4450 c0 -5 5 -10 11 -10 5 0 7 5 4 10 -3 6 -8 10 -11 10 -2 0
-4 -4 -4 -10z"/>
<path d="M1763 4385 c0 -22 2 -30 4 -17 2 12 2 30 0 40 -3 9 -5 -1 -4 -23z"/>
<path d="M1820 4236 c0 -9 5 -16 10 -16 6 0 10 4 10 9 0 6 -4 13 -10 16 -5 3
-10 -1 -10 -9z"/>
<path d="M1750 4135 c0 -8 -4 -15 -10 -15 -5 0 -10 -7 -10 -15 0 -8 -4 -15 -9
-15 -10 0 -24 -30 -17 -37 4 -4 66 81 66 91 0 3 -4 6 -10 6 -5 0 -10 -7 -10
-15z"/>
<path d="M1992 4130 c0 -14 2 -19 5 -12 2 6 2 18 0 25 -3 6 -5 1 -5 -13z"/>
<path d="M1751 4085 c-24 -36 -29 -50 -21 -65 16 -30 11 -37 -8 -12 -16 20
-28 23 -93 25 -57 2 -73 0 -65 -9 6 -7 14 -10 19 -7 4 2 10 -3 13 -11 3 -9 10
-16 16 -16 5 0 6 5 3 10 -3 6 3 10 15 10 12 0 18 -4 15 -10 -9 -15 7 -12 32 5
19 13 22 13 36 -8 8 -12 17 -32 21 -44 4 -11 13 -24 21 -27 19 -7 19 5 0 30
-8 10 -14 24 -14 29 -1 6 8 -1 18 -14 19 -24 41 -22 41 5 0 8 4 14 8 14 5 0
14 11 20 25 10 22 9 30 -10 55 -27 37 -30 38 -17 4 7 -21 6 -31 -7 -45 -10
-11 -14 -19 -10 -19 4 0 17 10 28 23 18 20 18 19 -1 -10 -12 -17 -21 -39 -21
-50 -1 -14 -5 -12 -25 12 -14 17 -25 36 -25 43 0 17 30 75 44 84 6 4 8 10 4
13 -3 3 -20 -15 -37 -40z"/>
<path d="M1964 4075 c-10 -8 -14 -15 -8 -15 6 0 17 7 24 15 16 19 9 19 -16 0z"/>
<path d="M1531 4064 c0 -11 3 -14 6 -6 3 7 2 16 -1 19 -3 4 -6 -2 -5 -13z"/>
<path d="M1640 4060 c-24 -8 -23 -8 8 -9 17 -1 32 4 32 9 0 11 -5 11 -40 0z"/>
<path d="M1890 4060 c0 -5 7 -7 15 -4 8 4 15 8 15 10 0 2 -7 4 -15 4 -8 0 -15
-4 -15 -10z"/>
<path d="M1757 3811 c-4 -17 -3 -21 5 -13 5 5 8 16 6 23 -3 8 -7 3 -11 -10z"/>
<path d="M2041 4074 c0 -11 3 -14 6 -6 3 7 2 16 -1 19 -3 4 -6 -2 -5 -13z"/>
<path d="M1830 3939 c-6 -11 -10 -25 -8 -30 2 -5 8 4 15 21 13 34 9 40 -7 9z"/>
<path d="M1805 1300 c3 -5 8 -10 11 -10 2 0 4 5 4 10 0 6 -5 10 -11 10 -5 0
-7 -4 -4 -10z"/>
<path d="M1800 1200 c0 -5 5 -10 10 -10 6 0 10 5 10 10 0 6 -4 10 -10 10 -5 0
-10 -4 -10 -10z"/>
<path d="M1812 975 c0 -16 2 -22 5 -12 2 9 2 23 0 30 -3 6 -5 -1 -5 -18z"/>
<path d="M1843 196 c-36 -23 -43 -40 -15 -34 9 2 16 10 15 16 -2 7 3 12 11 12
8 0 18 5 21 11 12 19 1 17 -32 -5z"/>
<path d="M2055 4670 c3 -5 8 -10 11 -10 2 0 4 5 4 10 0 6 -5 10 -11 10 -5 0
-7 -4 -4 -10z"/>
<path d="M2071 4604 c0 -11 3 -14 6 -6 3 7 2 16 -1 19 -3 4 -6 -2 -5 -13z"/>
<path d="M1752 3695 c0 -16 2 -22 5 -12 2 9 2 23 0 30 -3 6 -5 -1 -5 -18z"/>
<path d="M1767 3662 c-5 -41 -1 -55 14 -47 12 8 12 72 0 79 -5 3 -11 -11 -14
-32z"/>
<path d="M1691 3334 c0 -11 3 -14 6 -6 3 7 2 16 -1 19 -3 4 -6 -2 -5 -13z"/>
<path d="M1805 3170 c3 -5 8 -10 11 -10 2 0 4 5 4 10 0 6 -5 10 -11 10 -5 0
-7 -4 -4 -10z"/>
<path d="M1802 3120 c0 -19 2 -27 5 -17 2 9 2 25 0 35 -3 9 -5 1 -5 -18z"/>
<path d="M1812 3010 c0 -19 2 -27 5 -17 2 9 2 25 0 35 -3 9 -5 1 -5 -18z"/>
<path d="M1813 2935 c0 -22 2 -30 4 -17 2 12 2 30 0 40 -3 9 -5 -1 -4 -23z"/>
<path d="M1696 2917 c3 -10 9 -15 12 -12 3 3 0 11 -7 18 -10 9 -11 8 -5 -6z"/>
<path d="M1906 2917 c3 -10 9 -15 12 -12 3 3 0 11 -7 18 -10 9 -11 8 -5 -6z"/>
<path d="M1693 2240 c0 -25 2 -35 4 -22 2 12 2 32 0 45 -2 12 -4 2 -4 -23z"/>
<path d="M1911 1134 c0 -11 3 -14 6 -6 3 7 2 16 -1 19 -3 4 -6 -2 -5 -13z"/>
<path d="M1764 81 c0 -11 5 -17 13 -14 10 4 11 9 2 19 -15 18 -15 18 -15 -5z"/>
<path d="M1795 50 c3 -5 8 -10 11 -10 2 0 4 5 4 10 0 6 -5 10 -11 10 -5 0 -7
-4 -4 -10z"/>
</g>
</svg>
